<?xml version="1.0" encoding="UTF-8" standalone="no"?>
<!-- Created with Inkscape (http://www.inkscape.org/) -->

<svg
   version="1.1"
   id="svg1"
   width="507.32178"
   height="173.86183"
   viewBox="0 0 507.32178 173.86183"
   xmlns="http://www.w3.org/2000/svg"
   xmlns:svg="http://www.w3.org/2000/svg">
  <defs
     id="defs1">
    <clipPath
       clipPathUnits="userSpaceOnUse"
       id="clipPath17">
      <path
         d="M 1.4305e-5,0 H 960.00001 V 540 H 1.4305e-5 Z"
         transform="matrix(1,0,0,-1,-253.27,439.27001)"
         clip-rule="evenodd"
         id="path17" />
    </clipPath>
    <clipPath
       clipPathUnits="userSpaceOnUse"
       id="clipPath22">
      <path
         d="M 1.4305e-5,0 H 960.00001 V 540 H 1.4305e-5 Z"
         transform="matrix(1,0,0,-1,-307.49001,403.46001)"
         clip-rule="evenodd"
         id="path22" />
    </clipPath>
  </defs>
  <g
     id="g1"
     transform="translate(-350.85794,-18.208487)">
    <g
       id="g182">
      <g
         id="g15">
        <path
           id="path16"
           d="m 13.205586,5.7670703 c -0.960938,0 -1.763672,-0.5244141 -2.402344,-1.5703125 C 10.316914,3.7192187 10.018086,3.0600391 9.9008984,2.2162891 9.7837109,1.3783984 10.041523,-0.13332031 10.674336,-2.3305859 c 0.638672,-2.203125 1.722656,-5.5839844 3.246094,-10.1484371 0.796875,-3.038086 1.432617,-5.25586 1.910156,-6.65625 0.483398,-1.40625 0.726562,-2.428711 0.726562,-3.070313 0,-0.873047 0.09961,-1.611328 0.304688,-2.214844 0.202148,-0.600586 0.304687,-1.183593 0.304687,-1.746093 0.47461,0 0.952149,-0.436524 1.429688,-1.3125 0.483398,-0.881836 0.884766,-2.085938 1.207031,-3.609375 0.319336,-1.359375 0.621094,-2.455079 0.902344,-3.292969 0.28125,-0.84375 0.421875,-1.423828 0.421875,-1.746094 0.398437,-0.638672 0.814453,-1.640625 1.253906,-3 0.436524,-1.359375 1.136719,-3 2.097656,-4.921875 0.638672,-2.396484 1.359375,-4.898437 2.15625,-7.5 0.802735,-2.601562 1.623047,-5.041992 2.460938,-7.324219 0.84375,-2.279297 1.546875,-4.057617 2.109375,-5.332031 0.881836,-2.484375 1.561523,-4.224609 2.039062,-5.226562 0.47461,-0.999024 0.47461,-1.658204 0,-1.980469 -0.5625,-0.398438 -0.685546,-1.078125 -0.363281,-2.039063 0.319336,-0.960937 1.201172,-2.041992 2.648438,-3.246093 0.873047,-1.03711 1.631836,-1.775391 2.273437,-2.214844 0.638672,-0.436524 1.458985,-0.65625 2.460938,-0.65625 0.999023,0 2.460937,0.0791 4.382812,0.234375 1.435547,0.0791 2.976563,0.117187 4.617188,0.117187 1.640625,0 2.663086,0 3.070312,0 0.717774,0.322266 1.59668,0.66211 2.636719,1.019532 1.037109,0.360351 1.974609,0.700195 2.8125,1.019531 0.84375,0.322265 1.265625,0.603515 1.265625,0.84375 0,0.486328 0.178711,0.785156 0.539062,0.902344 0.357422,0.117187 0.738282,0.219726 1.136719,0.304687 0.5625,0 1.324219,0.421875 2.285156,1.265625 0.960938,0.837891 1.959961,1.875 3,3.117188 1.03711,1.236328 1.839844,2.53125 2.402344,3.890625 0.638672,1.359375 1.139649,2.642578 1.5,3.84375 0.357422,1.204101 0.339844,2.923828 -0.05859,5.15625 -0.0791,1.204101 -0.257812,2.408203 -0.539062,3.609375 -0.28125,1.195312 -0.583008,1.992187 -0.902344,2.390625 -0.486328,0.322265 -0.925781,0.723632 -1.324219,1.207031 -0.398437,0.477539 -0.597656,0.919922 -0.597656,1.324219 0,0.322265 -0.28125,0.943359 -0.84375,1.863281 -0.55664,0.914062 -1.274414,1.974609 -2.15625,3.175781 -0.884765,1.195313 -1.845703,2.396484 -2.882812,3.597656 -1.040039,1.204102 -2.039063,2.244141 -3,3.117188 -1.040039,1.283203 -2.258789,2.484375 -3.65625,3.609375 -1.400391,1.11914 -2.660157,2.036133 -3.785157,2.753906 -2.080078,0.960938 -4.379882,1.921875 -6.902343,2.882813 -2.516602,0.960937 -4.916016,1.763671 -7.195313,2.402343 -2.282226,0.641602 -4.183594,0.919922 -5.707031,0.832032 -2.320313,0.322265 -3.820313,0.621093 -4.5,0.902343 -0.679688,0.28125 -1.180664,0.981446 -1.5,2.097657 -0.398438,1.048828 -0.779297,2.109375 -1.136719,3.1875 -0.360351,1.078125 -0.539062,1.816406 -0.539062,2.214843 -0.164063,0.322266 -0.547852,1.300782 -1.148438,2.941407 -0.594726,1.640625 -1.230469,3.544921 -1.910156,5.7070308 -0.679688,2.15625 -1.341797,4.2773438 -1.980469,6.3632813 -0.641601,2.0771484 -1.12207,3.796875 -1.441406,5.15625 -0.32227,1.1162109 -0.723637,1.7753906 -1.207035,1.9804687 -0.477539,0.2021484 -1.075196,0.3046875 -1.792969,0.3046875 z M 28.088398,-31.439961 c 0.319336,0.322266 1.558594,0.360352 3.714844,0.117188 2.16211,-0.240235 4.482422,-0.84375 6.960938,-1.804688 1.599609,-0.553711 3.222656,-1.230469 4.863281,-2.027344 1.640625,-0.802734 3.222656,-1.6875 4.746094,-2.648437 0.796875,-0.5625 1.995117,-1.561524 3.597656,-3 1.599609,-1.444336 3.199219,-3.166992 4.792969,-5.167969 0.240234,-0.398437 0.662109,-1.174805 1.265625,-2.332031 0.600586,-1.163086 1.139648,-2.264649 1.617187,-3.304688 0.717774,-1.116211 1.435547,-2.777343 2.15625,-4.980468 0.726563,-2.203125 0.890625,-4.022461 0.492188,-5.460938 -0.407227,-2.077148 -1.450196,-4.013672 -3.128907,-5.8125 -1.68164,-1.804687 -3.679687,-3.026367 -6,-3.667969 -1.757812,-0.319336 -3.219726,-0.480468 -4.382812,-0.480468 -1.157227,0 -2.414063,0.123046 -3.773438,0.363281 -1.283203,0.398437 -2.223632,0.958008 -2.824218,1.675781 -0.603516,0.720703 -1.382813,2.238281 -2.34375,4.558594 -0.556641,1.11914 -1.356446,2.818359 -2.402344,5.097656 -1.040039,2.282227 -1.918945,4.423828 -2.636719,6.421875 -1.438476,5.282227 -2.859375,9.626953 -4.265625,13.03125 -1.40039,3.398438 -2.258789,5.540039 -2.578125,6.421875 0.08496,0.875977 0.04687,1.494141 -0.117187,1.851563 -0.158203,0.360351 -0.07617,0.74414 0.246093,1.148437 z M 83.415547,2.8842578 C 80.931172,2.7201953 78.745625,1.9584766 76.864766,0.59910156 c -1.875,-1.359375 -3.852539,-2.75683596 -5.929688,-4.19531246 -1.359375,-1.359375 -2.443359,-2.8183594 -3.246094,-4.3828125 -0.796875,-1.5615235 -1.438476,-3.6240236 -1.921875,-6.1874996 -0.322265,-1.514649 -0.322265,-3.433594 0,-5.753907 0.319336,-2.320312 0.837891,-4.658203 1.558594,-7.019531 0.726563,-2.358398 1.40918,-4.259766 2.050781,-5.707031 0.952149,-2.241211 2.167969,-4.658203 3.644532,-7.253906 1.482422,-2.601563 2.964843,-5.080079 4.441406,-7.441407 1.482422,-2.367187 2.666016,-4.268554 3.550781,-5.707031 0.5625,-0.5625 0.823242,-0.861328 0.785156,-0.902344 -0.04102,-0.03809 -0.05859,-0.05859 -0.05859,-0.05859 0,-0.398438 0.416015,-1.417969 1.253906,-3.058594 0.84375,-1.640625 1.584961,-3.09961 2.226562,-4.382813 1.195313,-1.280273 1.869141,-2.320312 2.027344,-3.117187 0.164063,-0.802735 0.04687,-1.444336 -0.351562,-1.921875 -0.164063,-0.319336 0.111328,-0.878906 0.832031,-1.675781 0.726562,-0.802735 1.807617,-1.725586 3.246094,-2.765625 1.444336,-1.03711 3.084961,-2.077149 4.921875,-3.117188 1.921875,-1.523437 3.779297,-2.34375 5.578121,-2.460937 1.80469,-0.123047 2.86524,0.254882 3.1875,1.136718 0,0.243164 0.45703,0.304688 1.37109,0.1875 0.91993,-0.123047 2.00391,-0.328125 3.2461,-0.609375 1.24219,-0.28125 2.34375,-0.498047 3.30469,-0.65625 0.39843,-0.483398 1.33593,-0.861328 2.8125,-1.136718 1.48242,-0.28125 3.22558,-0.541993 5.22656,-0.785157 1.03711,0.0791 2.05664,0.09961 3.05859,0.05859 0.99903,-0.03809 1.83985,-0.09668 2.51953,-0.175781 0.67969,-0.08496 1.01953,-0.128906 1.01953,-0.128906 0.5625,-0.155274 1.22168,-0.07324 1.98047,0.246093 0.76465,0.322266 1.46485,1.201172 2.09766,2.636719 0.5625,1.447266 0.38086,2.52832 -0.53906,3.246094 -0.91407,0.720703 -3.01172,1.277344 -6.29297,1.675781 -2.4082,0.322266 -4.48828,0.583008 -6.2461,0.785156 -1.75781,0.196289 -3.59765,0.433594 -5.51953,0.714844 -1.92187,0.28125 -4.2832,0.744141 -7.07812,1.382813 -2.00098,0.398437 -3.6416,0.861328 -4.92188,1.382812 -1.283197,0.515625 -2.402338,1.274414 -3.363275,2.273438 -0.960938,1.001953 -2.044922,2.422851 -3.246094,4.265625 -0.55664,0.398437 -1.274414,1.438476 -2.15625,3.117187 -0.884765,1.681641 -1.763672,3.360352 -2.636719,5.039063 -2.24414,3.125976 -4.183593,5.830078 -5.824218,8.109375 -1.640625,2.282226 -2.302735,3.621093 -1.980469,4.019531 0,0 0.436523,0.123047 1.3125,0.363281 0.881836,0.234375 1.482422,0.351563 1.804687,0.351563 0.802735,-0.398438 1.78418,-0.673829 2.941407,-0.832032 1.163086,-0.164062 2.103515,-0.322265 2.824218,-0.480468 4.959961,-1.280274 8.859375,-2.279297 11.695313,-3 2.84179,-0.726563 5.0039,-1.268555 6.48047,-1.628907 1.48242,-0.357422 2.62793,-0.577148 3.43359,-0.65625 1.11621,-0.881836 2.21484,-1.042968 3.29297,-0.480468 1.07812,0.5625 1.93652,1.441406 2.57812,2.636718 0.4043,0.884766 0.42481,1.646485 0.0586,2.285157 -0.36035,0.641601 -1.35938,1.283203 -3,1.921875 -1.64063,0.641601 -4.06348,1.40332 -7.26563,2.285156 -3.19629,0.875976 -7.39453,2.033203 -12.597651,3.46875 -4.400391,1.283203 -8.16211,2.044922 -11.285157,2.285156 -3.117187,0.243164 -4.59375,-0.436523 -4.429687,-2.039062 -0.5625,-0.319336 -1.183594,0.06445 -1.863281,1.148437 -0.679688,1.078125 -1.341797,2.540039 -1.980469,4.382813 -0.641602,1.836914 -1.183594,3.793945 -1.628906,5.871093 -0.439453,2.080078 -0.714844,4.019532 -0.832032,5.824219 -0.117187,1.798828 -0.01758,3.137695 0.304688,4.019531 0.638672,1.836914 1.479492,3.2988284 2.519531,4.3828128 1.03711,1.078125 2.917969,2.015625 5.636719,2.8125 1.599609,0.087891 3.158203,0.2109375 4.675781,0.375 1.523438,0.1582031 3.246094,-0.1669922 5.167969,-0.9726562 4.716797,-0.796875 8.4375,-1.6347657 11.156245,-2.5195313 2.72461,-0.8818359 4.28906,-1.4824219 4.6875,-1.8046875 0.63867,-0.3193358 1.05762,-0.4980468 1.25391,-0.5390628 0.20215,-0.03809 0.5039,-0.05859 0.90234,-0.05859 -0.24316,0.3984371 -0.14648,0.4189449 0.29297,0.05859 0.44531,-0.357422 1.06934,-0.9375 1.875,-1.734375 0.87305,-0.802734 2.03027,-1.564453 3.46875,-2.285156 1.44434,-0.717773 2.74512,-1.277344 3.90234,-1.675781 1.16309,-0.398438 1.78418,-0.398438 1.86329,0 0.48339,0.796875 0.40429,1.898437 -0.23438,3.304687 -0.6416,1.400391 -1.80176,2.9179691 -3.48047,4.5585941 -1.68164,1.640625 -3.84082,3.2197265 -6.48047,4.734375 -4.24218,2.2441406 -8.84472,3.82324215 -13.804681,4.7460937 -4.962891,0.9199219 -9.404297,1.4208984 -13.324219,1.5 z m 66.492183,1.078125 c -1.92187,0.2402344 -3.38378,0.3632813 -4.38281,0.3632813 -1.00195,0 -1.92187,-0.1230469 -2.76562,-0.3632813 -0.83789,-0.2431641 -1.9336,-0.5625 -3.29297,-0.9609375 -1.11914,-0.7207031 -2.05957,-1.4003906 -2.82422,-2.03906249 -0.75879,-0.64160156 -1.33594,-1.11914062 -1.73438,-1.44140625 0,-0.3984375 -0.10253,-0.71777346 -0.30468,-0.96093746 -0.20508,-0.2402344 -0.30469,-0.3632813 -0.30469,-0.3632813 -0.31348,0 -0.57129,-0.6972656 -0.77344,-2.0976562 -0.20508,-1.397461 -0.28711,-3.0585938 -0.24609,-4.9804688 0.0469,-1.9218748 0.16699,-3.7207028 0.36328,-5.4023438 0.20215,-1.678711 0.46289,-2.800781 0.78516,-3.363281 0,-0.398438 0.0967,-0.893555 0.29296,-1.488281 0.20215,-0.600586 0.30469,-1.104493 0.30469,-1.511719 0,-1.359375 0.19922,-2.039063 0.59766,-2.039063 0,0 0.0967,-0.01758 0.29297,-0.05859 0.20215,-0.03809 0.30468,-0.178711 0.30468,-0.421875 0,-0.47461 0.15821,-1.13086 0.48047,-1.96875 0.31934,-0.84375 0.5625,-1.623047 0.72657,-2.34375 0.39843,-0.726563 0.89648,-1.96875 1.5,-3.726563 0.60058,-1.757812 1.17773,-3.398437 1.73437,-4.921875 0.4043,-1.757812 0.9668,-3.515625 1.6875,-5.273437 0.71777,-1.763672 1.23633,-3.166993 1.55859,-4.207032 1.11622,-1.921875 1.67579,-3.363281 1.67579,-4.324218 0.16406,-0.553711 0.70312,-1.751954 1.61718,-3.597657 0.91993,-1.842773 2.00391,-4.001953 3.2461,-6.480468 1.24218,-2.484375 2.52246,-5.003907 3.84375,-7.558594 1.31836,-2.560547 2.51953,-4.804688 3.59765,-6.726563 1.07813,-1.921875 1.89844,-3.240234 2.46094,-3.960937 1.28027,-1.59961 2.24121,-2.601563 2.88281,-3 0.63868,-0.398438 1.31836,-0.597656 2.03907,-0.597656 0.39843,0.158203 0.89648,0.515625 1.5,1.078125 0.60058,0.5625 1.17773,1.166015 1.73437,1.804687 0.5625,0.641602 0.88184,1.201172 0.96094,1.675781 0,0.164063 -0.32227,0.767578 -0.96094,1.804688 -0.63281,1.040039 -1.42969,2.200195 -2.39062,3.480469 -0.96094,1.283203 -1.88379,2.402343 -2.76563,3.363281 -0.24316,0.322265 -0.38379,0.603515 -0.42187,0.84375 -0.041,0.234375 -0.0586,0.351562 -0.0586,0.351562 0,0 -0.26367,0.462891 -0.78515,1.382813 -0.51563,0.922851 -1.13379,2.044922 -1.85157,3.363281 -0.7207,1.321289 -1.35937,2.583984 -1.92187,3.785156 -0.5625,1.195313 -0.88477,2.071289 -0.96094,2.625 -0.47754,0.5625 -1.13672,1.708008 -1.98047,3.433594 -0.84375,1.719727 -1.66406,3.55957 -2.46094,5.519531 -0.79687,1.954102 -1.51757,3.653321 -2.15625,5.097657 -0.6416,1.438476 -1.04296,2.238281 -1.20703,2.402343 0,0.398438 -0.0205,0.779297 -0.0586,1.136719 -0.041,0.360352 -0.21973,0.738281 -0.53906,1.136719 -0.24317,0.5625 -0.66504,1.825195 -1.26563,3.785156 -0.59472,1.962891 -1.41211,3.981445 -2.44922,6.058594 -0.5625,2.399414 -1.24804,4.520508 -2.05078,6.363281 -0.79687,1.836914 -1.39453,2.958984 -1.79297,3.363281 -0.32226,0.796875 -0.48047,1.259766 -0.48047,1.382813 0,0.117187 0.15821,0.137695 0.48047,0.05859 0.39844,-0.404297 0.59766,-0.46875 0.59766,-0.1875 0,0.28125 -0.19922,0.74414 -0.59766,1.382812 -0.32226,0.796875 -0.60351,1.719727 -0.84375,2.765625 -0.24316,1.040039 -0.36328,2.118164 -0.36328,3.2343751 0.16406,2.71875 0.56543,4.5205078 1.20703,5.4023437 0.63868,0.8847656 1.95996,1.2832031 3.96094,1.1953125 2.71875,-0.1552734 5.23828,-0.4335937 7.55859,-0.8320312 2.32032,-0.3984375 4.19825,-0.7558594 5.63672,-1.078125 2.63965,-0.881836 4.93946,-1.303711 6.90235,-1.265625 1.95996,0.041016 3.34277,0.5800781 4.14843,1.6171875 0.47461,0.7207031 0.75293,1.2832031 0.83204,1.6875 0.085,0.3984375 0.1289,0.796875 0.1289,1.1953125 -0.24316,0.3222656 -1.18359,0.78222652 -2.82422,1.38281246 -1.64062,0.60058594 -3.583,1.19824214 -5.82422,1.79296874 -2.24414,0.6005859 -4.46484,1.1015625 -6.66796,1.5 -2.19727,0.4042969 -3.97266,0.6474609 -5.33204,0.7265625 z m 42.60645,2.6367188 c -0.6416,-0.796875 -1.94238,-1.2773438 -3.90234,-1.4414063 -1.96289,-0.1582031 -4.3418,-0.1142578 -7.13672,0.1289063 -1.125,0.1552734 -2.20899,0.1113281 -3.2461,-0.1289063 -1.04004,-0.234375 -1.88086,-0.6328125 -2.51953,-1.1953125 -0.6416,-0.5625 -0.88476,-1.2041016 -0.72656,-1.921875 0.085,-0.9609375 0.88477,-1.74023436 2.40234,-2.33203124 1.52344,-0.60058594 4.00196,-0.98437496 7.44141,-1.14843746 l 6.36328,-0.3632813 1.20703,-2.5195312 c 0.23438,-0.8730469 0.56836,-2.1123047 1.00781,-3.7148438 0.44532,-1.5996094 0.90528,-3.3222658 1.38282,-5.1679688 0.31933,-1.116211 0.82031,-2.771484 1.5,-4.96875 0.67968,-2.203125 1.41797,-4.541016 2.21484,-7.019531 0.80274,-2.484375 1.52637,-4.725586 2.16797,-6.726563 0.63867,-1.998047 0.99902,-3.363281 1.07812,-4.089843 0.31934,-0.717774 0.76172,-2.033204 1.32422,-3.949219 0.5625,-1.921875 1.11914,-3.902344 1.67578,-5.941406 0.5625,-2.044922 0.92579,-3.46875 1.08985,-4.265625 1.83398,-6.404297 3.03515,-10.96875 3.59765,-13.6875 0.5625,-2.71875 0.68262,-4.078125 0.36329,-4.078125 -0.32227,0 -1.10157,0.04394 -2.34375,0.128906 -1.24219,0.0791 -2.60743,0.219726 -4.08985,0.421875 -1.47656,0.196289 -2.79785,0.395508 -3.96094,0.597656 -1.15722,0.196289 -1.81347,0.37207 -1.96875,0.527344 -0.40722,0.5625 -1.08984,0.703125 -2.05078,0.421875 -0.95507,-0.28125 -1.59082,-0.820313 -1.91015,-1.617188 -0.0879,-0.717773 -0.11133,-1.277343 -0.0703,-1.675781 0.0469,-0.404297 0.22852,-0.726562 0.55079,-0.960937 0.55371,-0.483399 1.61132,-1.045899 3.17578,-1.6875 1.56152,-0.638672 3.36328,-1.236329 5.40234,-1.792969 2.03906,-0.5625 3.97852,-1.001953 5.82422,-1.324219 1.35937,-0.155273 2.71875,-0.495117 4.07812,-1.019531 1.35938,-0.521485 2.39649,-1.104492 3.11719,-1.746094 0.71778,-0.319336 1.41797,-0.556641 2.09766,-0.714844 0.68555,-0.164062 1.38867,-0.202148 2.10937,-0.117187 0.63868,0.322265 1.73731,0.46289 3.29297,0.421875 1.56153,-0.04687 3.22266,-0.146485 4.98047,-0.304688 4.48242,-0.5625 7.52637,-0.779297 9.12891,-0.65625 1.59961,0.117188 2.67773,0.735352 3.23437,1.851563 0.4043,1.447265 0.50684,2.610351 0.30469,3.492187 -0.20508,0.875977 -0.98438,1.274414 -2.34375,1.195313 -0.7207,0.243164 -2.02148,0.445312 -3.90234,0.609375 -1.875,0.158203 -3.85547,0.313476 -5.94141,0.46875 -2.71875,0.322265 -4.86035,0.662109 -6.42188,1.019531 -1.55566,0.360352 -2.41406,0.700195 -2.57812,1.019531 -0.32227,0.322266 -0.58301,0.641602 -0.78516,0.960938 -0.19629,0.322265 -0.4541,0.679687 -0.77343,1.078125 0.16406,0.322265 0.041,1.344726 -0.36329,3.070312 -0.39843,1.719727 -0.8789,3.498047 -1.4414,5.332032 -0.32227,1.040039 -0.80274,2.583984 -1.44141,4.628906 -0.63281,2.039062 -1.29492,4.180664 -1.98047,6.421875 -0.67968,2.235351 -1.30078,4.253906 -1.86328,6.058594 -0.55664,1.798828 -0.95508,2.976562 -1.19531,3.539062 -0.23438,0.720703 -0.4541,1.5 -0.65625,2.34375 -0.20508,0.837891 -0.30469,1.453125 -0.30469,1.851563 -1.27441,5.203125 -2.47265,9.626953 -3.59765,13.265625 -1.11914,3.641601 -2.13868,6.902343 -3.0586,9.785156 -0.92285,2.8769529 -1.74316,5.7949217 -2.46094,8.7539061 0,0 0.6211,-0.058594 1.86329,-0.1757813 1.24218,-0.1171875 2.90039,-0.3339844 4.98046,-0.65625 2.79493,-0.4042969 4.99512,-0.6855469 6.59766,-0.84375 1.59961,-0.1552734 2.80078,-0.2138672 3.59766,-0.1757812 0.80273,0.041016 1.34765,0.1992187 1.6289,0.4804687 0.28125,0.2753906 0.53907,0.6914063 0.77344,1.2539063 1.67871,2.08007809 1.93652,3.515625 0.77344,4.3125 -1.15723,0.8027343 -3.97266,1.2890625 -8.44922,1.453125 -4.16602,0.3193359 -7.34766,0.5771484 -9.55078,0.7734375 -2.19727,0.2021484 -3.71485,0.421875 -4.5586,0.65625 -0.83789,0.2402343 -1.29492,0.6445312 -1.37109,1.2070312 0,0.3984375 -0.14062,0.6972656 -0.42187,0.9023438 -0.28125,0.2021484 -0.68555,0.2607421 -1.20704,0.1757812 -0.51562,-0.079102 -1.0957,-0.2402344 -1.73437,-0.4804687 z m 87.01172,-10.921875 c -0.0791,0.3222656 -0.7207,0.3222656 -1.92188,0 -1.19531,-0.319336 -2.49609,-0.8583985 -3.90234,-1.6171875 -1.40039,-0.7558594 -2.57813,-1.6171875 -3.53906,-2.578125 -1.51758,-1.0371094 -3.19629,-2.4755861 -5.03907,-4.3125001 -1.83691,-1.842773 -3.59765,-3.84668 -5.28515,-6.011719 -1.68164,-2.162109 -3.0791,-4.245117 -4.19531,-6.246093 -0.79688,-1.359375 -1.40039,-2.616211 -1.80469,-3.773438 -0.39844,-1.163086 -0.91992,-1.746094 -1.5586,-1.746094 -0.55664,0.08789 -1.15429,-0.152343 -1.79296,-0.714843 -0.64161,-0.5625 -1.20411,-1.324219 -1.6875,-2.285157 -0.47754,-0.960937 -0.83789,-1.921875 -1.07813,-2.882812 0.0762,-0.638672 0.33399,-1.21875 0.77344,-1.734375 0.44531,-0.521485 0.9873,-0.741211 1.6289,-0.65625 0,-0.240235 0.63868,-1.042969 1.92188,-2.402344 1.28027,-1.359375 2.90039,-3.017578 4.86328,-4.980469 1.95996,-1.959961 4.03711,-3.978515 6.23438,-6.058593 2.20312,-2.085938 4.25976,-3.966797 6.17578,-5.648438 1.92187,-1.678711 3.44531,-2.917969 4.57031,-3.714844 0.47461,-0.638672 0.85547,-1.11914 1.13672,-1.441406 0.28125,-0.319336 0.54199,-0.600586 0.78515,-0.84375 0,0 0.2959,-0.140625 0.89063,-0.421875 0.60059,-0.28125 1.18359,-0.697266 1.74609,-1.253906 0.71778,-0.404297 1.33594,-0.905274 1.85157,-1.5 0.52148,-0.600586 0.86718,-1.101563 1.03125,-1.5 0.39843,-0.164063 1.07812,-0.603516 2.03906,-1.324219 0.96094,-0.717773 1.95996,-1.359375 3,-1.921875 1.20117,-0.638672 2.18262,-1.236328 2.9414,-1.792969 0.75586,-0.5625 1.13672,-0.84375 1.13672,-0.84375 0.71778,0 1.53809,0.38086 2.46094,1.136719 0.91992,0.758789 1.50293,1.379883 1.74609,1.863281 0.63868,0.960938 0.96094,1.564453 0.96094,1.804688 0,0.234375 -0.32226,0.550781 -0.96094,0.949219 -0.6416,1.447265 -1.48242,2.490234 -2.51953,3.128906 -1.04004,0.641601 -2.10351,1.201172 -3.1875,1.675781 -1.07812,0.477539 -2.09765,1.239258 -3.05859,2.285156 -1.52344,1.757813 -3.14648,3.041016 -4.86328,3.84375 -1.71973,0.796875 -3.38086,2.074219 -4.98047,3.832032 -1.75781,1.602539 -3.52148,3.243164 -5.28516,4.921875 -1.75781,1.68164 -3.59765,3.28125 -5.51953,4.804687 0,0 -0.24023,0.219727 -0.71484,0.65625 -0.47754,0.439453 -1.29785,1.239258 -2.46094,2.402344 -1.15723,1.157226 -2.73926,2.777344 -4.74609,4.863281 l 2.40234,5.15625 c 2.24121,3.041016 4.56152,5.961914 6.96094,8.765625 2.40527,2.797852 4.74609,5.15625 7.01953,7.078125 2.2793,1.921875 4.22168,3.082031 5.82422,3.480469 1.20117,0.398437 2.20312,1.321289 3,2.7656248 0.63867,0.234375 0.96094,0.7353516 0.96094,1.5 0,0.7587891 -0.30176,1.4589844 -0.90235,2.0976563 -0.59472,0.6416015 -1.61426,1.040039 -3.05859,1.1953125 z m -47.16797,6.7265625 c -1.04004,-0.1640625 -1.91895,-0.7675782 -2.63672,-1.80468754 -0.7207,-1.03710937 -1.16016,-2.11523436 -1.32422,-3.23437496 0.39844,-0.6386719 0.65625,-1.4589844 0.77344,-2.4609375 0.12305,-0.9990235 0.3457,-1.6201172 0.66797,-1.8632813 0.0762,-0.6386719 0.3164,-1.6787109 0.71484,-3.1171878 0.4043,-1.444336 0.68555,-2.967773 0.84375,-4.570312 0.63867,-1.195313 1.13965,-2.490235 1.5,-3.890625 0.35742,-1.40625 0.7793,-2.62793 1.26563,-3.667969 0.31933,-0.717773 0.59765,-1.514648 0.83203,-2.390625 0.24023,-0.881836 0.52148,-1.564453 0.84375,-2.050781 0.80273,-2.320313 1.46484,-4.300781 1.98047,-5.941406 0.52148,-1.640625 0.86133,-3.298829 1.01953,-4.980469 0.31933,-0.553711 0.62109,-1.151367 0.90234,-1.792969 0.28125,-0.638672 0.54199,-1.561523 0.78516,-2.765625 0.15527,-0.319336 0.6123,-1.256836 1.37109,-2.8125 0.76465,-1.561523 1.34766,-3.342773 1.7461,-5.34375 1.03711,-2.724609 1.91601,-4.886719 2.63671,-6.480469 0.71778,-1.599609 1.35938,-3.041015 1.92188,-4.324218 0.5625,-1.280274 1.16309,-2.759766 1.80469,-4.441407 0.39843,-1.037109 0.75586,-2.077148 1.07812,-3.117187 0.31934,-1.045899 0.48047,-1.570313 0.48047,-1.570313 0,-0.319336 0.23731,-0.999023 0.71484,-2.039062 0.4834,-1.03711 1.08399,-2.197266 1.80469,-3.480469 0.63867,-1.116211 1.25977,-2.091797 1.86328,-2.929687 0.60059,-0.84375 1.01953,-1.265625 1.25391,-1.265625 1.03711,-0.07617 2.01855,0.18457 2.94141,0.785156 0.91992,0.594726 1.58203,1.353515 1.98046,2.273437 0.39844,0.922852 0.2754,1.822266 -0.36328,2.695313 -0.23437,0.486328 -0.71484,1.546875 -1.4414,3.1875 -0.72071,1.640625 -1.52051,3.480469 -2.40235,5.519531 -0.87597,2.039063 -1.69629,3.960938 -2.46093,5.765625 -0.75879,1.798828 -1.33594,3.137695 -1.73438,4.019531 -0.32226,1.040039 -0.90234,2.501953 -1.74609,4.382813 -0.83789,1.875 -1.49414,3.773437 -1.96875,5.695312 -1.04004,1.523438 -1.76367,3.164063 -2.16797,4.921875 -0.39844,1.757813 -0.79688,2.997071 -1.19531,3.714844 -0.24317,0.5625 -0.48633,1.125 -0.72657,1.6875 -0.23437,0.5625 -0.47461,1.004883 -0.71484,1.324219 0,0 -0.10254,0.240234 -0.30469,0.714844 -0.19629,0.477539 -0.49219,1.11914 -0.89062,1.921875 0,0.641601 -0.0645,1.382812 -0.1875,2.226562 -0.11719,0.837891 -0.375,1.535156 -0.77344,2.097656 -0.24316,0.796875 -0.50391,1.497071 -0.78516,2.097657 -0.28125,0.603515 -0.42187,0.902343 -0.42187,0.902343 0,0.234375 -0.082,0.653321 -0.2461,1.253907 -0.1582,0.603515 -0.31347,1.183593 -0.46875,1.746093 -0.32226,0.796875 -0.80273,2.296875 -1.4414,4.5 -0.6416,2.197266 -1.2832,4.453125 -1.92188,6.7734378 -0.96093,3.6035156 -1.72265,6.2666016 -2.28515,7.9921875 -0.55664,1.71972657 -1.05469,2.8359375 -1.5,3.3515625 -0.43946,0.5214844 -0.97852,0.7851563 -1.61719,0.7851563 z m 57.96387,5.0390625 c -0.79688,-0.8847657 -1.31836,-1.6259766 -1.5586,-2.2265625 -0.23437,-0.5947266 -0.25488,-1.3125 -0.0586,-2.15625 0.20215,-0.8378907 0.50391,-2.015625 0.90234,-3.53906254 0.63868,-2.56054686 1.33887,-4.70214846 2.09766,-6.42187496 0.76465,-1.7167969 1.52637,-3.5156246 2.28516,-5.3906246 0.75586,-1.88086 1.41796,-4.303711 1.98046,-7.265625 1.28028,-2.958985 2.41993,-5.759766 3.42188,-8.402344 0.99902,-2.639649 1.77539,-4.798828 2.33203,-6.480469 0.5625,-1.6875 0.84375,-2.53125 0.84375,-2.53125 0.0762,-0.319336 0.43652,-1.160156 1.07813,-2.519531 0.63867,-1.359375 1.45898,-3.017578 2.46093,-4.980469 0.99903,-1.959961 1.93946,-3.94043 2.82422,-5.941406 1.35938,-3.834961 2.45508,-7.13086 3.29297,-9.890625 0.84375,-2.765625 1.70508,-5.267578 2.58984,-7.511719 0.88184,-2.241211 2.042,-4.441406 3.48047,-6.597656 0.96094,-1.678711 2.08008,-2.756836 3.36328,-3.234375 1.28028,-0.483399 2.49903,-0.462891 3.65625,0.05859 1.16309,0.515625 1.9834,1.576171 2.46094,3.175781 0.39844,0.796875 0.73828,1.757812 1.01953,2.882812 0.28125,1.119141 0.53907,2.739258 0.77344,4.863282 0.24024,2.118164 0.4043,5.097656 0.49219,8.941406 0.15527,4.555664 0.19336,9.055664 0.11719,13.5 -0.0791,4.438476 -0.0586,8.540039 0.0586,12.304687 0.11719,3.758789 0.5332,6.958008 1.25391,9.597657 0.24023,1.438476 0.58007,3.18164 1.01953,5.226562 0.44531,2.039063 0.92578,4.060547 1.4414,6.058594 0.52149,2.0009764 1.04297,3.6796873 1.5586,5.0390623 0.52148,1.359375 0.94336,2.0390625 1.26562,2.0390625 0.39844,0 0.9375,-0.5185547 1.61719,-1.5585937 0.67969,-1.0371094 1.55859,-2.9179688 2.63672,-5.6367191 1.08398,-2.724609 2.38476,-6.588867 3.90234,-11.589843 1.52344,-4.998047 3.2461,-11.419922 5.16797,-19.265625 0.39844,-1.359375 0.9375,-3.556641 1.61719,-6.597657 0.67969,-3.038086 1.17773,-6.120117 1.5,-9.246093 0.5625,-1.998047 1.11914,-4.198243 1.67578,-6.597657 0.5625,-2.396484 1.06055,-4.514648 1.5,-6.351562 0.44531,-1.842774 0.66797,-2.885742 0.66797,-3.128906 0,-0.5625 0.0176,-1.042969 0.0586,-1.441407 0.0381,-0.398437 0.0176,-0.796875 -0.0586,-1.195312 0.39844,0 0.75586,-0.539063 1.07812,-1.617188 0.31934,-1.083984 0.48047,-2.027343 0.48047,-2.824218 0,-1.359375 0.17871,-2.460938 0.53906,-3.304688 0.35743,-0.84375 0.74122,-1.464844 1.14844,-1.863281 0.23438,-0.638672 0.83203,-0.9375 1.79297,-0.890625 0.96094,0.04102 1.92188,0.298828 2.88281,0.773437 0.96094,0.477539 1.56153,1.119141 1.80469,1.921875 0.15527,0.884766 -0.0674,2.865235 -0.66797,5.941407 -0.60351,3.079101 -1.5,7.21875 -2.69531,12.421875 0,0.884765 -0.24316,2.326171 -0.72656,4.324218 -0.47754,2.000977 -0.97852,4.122071 -1.5,6.363282 -0.51563,2.235351 -0.89649,4.154296 -1.13672,5.753906 -0.32227,2.080078 -0.67969,4.019531 -1.07813,5.824219 -0.39843,1.798828 -0.80273,2.657226 -1.20703,2.578125 -2.08008,9.041015 -4.25976,16.743164 -6.53906,23.109375 -2.28223,6.360351 -4.30078,11.5400386 -6.05859,15.5390621 -1.92188,4.3974609 -4.02539,7.0576171 -6.30469,7.9804687 -2.28223,0.9199219 -4.69922,-0.2578125 -7.25391,-3.5390625 -1.52344,-2.07714843 -2.72754,-4.1367187 -3.60937,-6.1757812 -0.87598,-2.0449219 -1.59375,-4.4472657 -2.15625,-7.2070311 -0.5625,-2.756836 -1.24219,-6.178711 -2.03907,-10.265625 -1.2041,-3.28125 -1.86328,-6.600586 -1.98046,-9.960938 -0.11719,-3.357422 -0.0176,-6.820312 0.30468,-10.382812 0.31934,-3.5625 0.55664,-7.259766 0.71485,-11.097656 -0.0791,-3.84375 -0.24024,-6.404297 -0.48047,-7.6875 -0.24317,-1.280274 -0.70313,-1.21875 -1.38281,0.1875 -0.67969,1.40039 -1.77832,4.21875 -3.29297,8.460937 -0.5625,1.517578 -1.30664,3.357422 -2.22657,5.519531 -0.92285,2.15625 -1.82519,4.297852 -2.70703,6.421875 -0.87597,2.118164 -1.63476,3.958008 -2.27343,5.519532 -0.64161,1.564453 -1.04004,2.542968 -1.19532,2.941406 -0.48632,0.960937 -1.04882,2.223633 -1.6875,3.785156 -0.6416,1.555664 -1.16015,3.216797 -1.55859,4.980469 -2.88281,7.517578 -5.02441,13.5175779 -6.42188,17.9999998 -1.40039,4.47656251 -2.41992,7.5966797 -3.05859,9.3632813 -0.79687,2.2324218 -1.63769,3.7294921 -2.51953,4.4882812 -0.88477,0.7646484 -2.12695,0.3076172 -3.72656,-1.3710937 z m 0,0"
           style="fill:#72cb66;fill-opacity:1;fill-rule:nonzero;stroke:none"
           aria-label="PELIKN"
           transform="matrix(1.3333333,0,0,1.3333333,337.69333,134.30667)"
           clip-path="url(#clipPath17)" />
      </g>
      <g
         id="g20">
        <path
           id="path21"
           d="m 11.708242,0.31742187 c -6.9082029,0 -10.3593748,-3.82031247 -10.3593748,-11.46093787 0,-3.624023 0.8701172,-6.427734 2.6132812,-8.414062 1.7402344,-1.992188 4.1982422,-2.988281 7.3710936,-2.988281 1.538086,0 2.874024,0.243164 4.007813,0.726562 1.139648,0.486328 1.971679,1.177734 2.496093,2.074219 l -2.320312,2.308594 c -0.46875,-0.708985 -1.066406,-1.256836 -1.792969,-1.640625 -0.726562,-0.389649 -1.511719,-0.585938 -2.355469,-0.585938 -2.0156246,0 -3.6328121,0.726563 -4.8515621,2.179688 -1.2128906,1.447265 -1.8164062,3.503906 -1.8164062,6.175781 0,5.830078 2.5136719,8.7421874 7.5468753,8.7421874 1.505859,0 3,-0.3105469 4.476562,-0.9375 l 0.714844,2.75390622 c -1.813477,0.71191407 -3.723633,1.06640625 -5.730469,1.06640625 z m 8.25293,7.19531253 -0.152344,-2.9765625 2.601563,-0.3046875 c 1.092773,-0.140625 2.027343,-0.4423828 2.800781,-0.9023438 0.779297,-0.4541015 1.447266,-1.133789 2.003906,-2.0390625 0.553711,-0.89941404 1.03711,-2.07714841 1.453125,-3.5390625 l 4.136719,-14.3437496 h 3.445312 l -4.792968,15.1171871 c -0.626953,1.98339846 -1.330078,3.5800781 -2.109375,4.7929688 -0.773438,1.2099609 -1.69336,2.1152343 -2.753907,2.71875 -1.063476,0.609375 -2.332031,0.9990234 -3.808593,1.171875 z M 26.254141,0.00101562 19.644766,-16.592734 h 3.445312 l 5.425781,14.0859371 h 0.492188 v 2.50781252 z m 18.322265,0.31640625 c -0.75,0 -1.49414,-0.0322266 -2.226562,-0.09375 C 41.623281,0.16800781 40.885,0.09476562 40.135,0.00101562 l 1.277344,-3.03515622 c 0.553711,0.2578125 1.163086,0.4101562 1.828125,0.4570312 0.670898,0.046875 1.335937,0.070312 1.992187,0.070312 1.992188,0 3.533203,-0.5976562 4.628907,-1.7929687 1.092773,-1.2011719 1.640625,-2.9003907 1.640625,-5.0976563 0,-1.4999996 -0.333985,-2.6542976 -0.996094,-3.4687496 -0.665039,-0.811523 -1.605469,-1.21875 -2.824219,-1.21875 -2.821289,0 -4.230469,1.587891 -4.230469,4.7578121 L 42.47875,-13.592734 h 1.289063 c 0.155273,-2.208985 1.511718,-3.316407 4.066406,-3.316407 2.208984,0 3.919922,0.653321 5.132812,1.957032 1.209961,1.30664 1.816407,3.158203 1.816407,5.5546871 0,3.0878906 -0.890625,5.4785156 -2.671875,7.171875 -1.775391,1.69628909 -4.286133,2.54296877 -7.535157,2.54296877 z M 40.135,0.00101562 V -23.483359 h 3.316406 v 23.20312462 z m 27.061523,0.31640625 c -2.830078,0 -5.012695,-0.74121093 -6.550781,-2.22656247 -1.541015,-1.491211 -2.308594,-3.6328125 -2.308594,-6.421875 0,-2.7099614 0.650391,-4.8164064 1.957032,-6.3164064 1.303711,-1.505859 3.146484,-2.261719 5.53125,-2.261719 2.241211,0 3.975586,0.679688 5.203125,2.039063 1.224609,1.359375 1.839843,3.333984 1.839843,5.9179686 0,0.7587891 -0.03223,1.4707031 -0.09375,2.1328125 H 61.126211 v -2.5429687 h 8.742187 c 0,-1.4912114 -0.357421,-2.6367184 -1.066406,-3.4335934 -0.711914,-0.796875 -1.693359,-1.195313 -2.941406,-1.195313 -1.415039,0 -2.513672,0.480469 -3.292969,1.441406 -0.773437,0.955078 -1.160156,2.308594 -1.160156,4.0664066 0,1.921875 0.533203,3.3837891 1.605469,4.3828125 1.069336,1.0019531 2.592773,1.5 4.570312,1.5 0.685547,0 1.362305,-0.038086 2.027344,-0.1171875 0.670898,-0.076172 1.350586,-0.1816406 2.039062,-0.3164062 l 0.410157,2.90624997 c -0.984375,0.1875 -1.883789,0.30761719 -2.695313,0.36328125 -0.814453,0.0527344 -1.535156,0.0820313 -2.167969,0.0820313 z m 16.22461,-7.45312497 -0.960938,-5.2031249 h 1.277344 c 0.1875,-3.046875 1.710938,-4.570313 4.570313,-4.570313 1.710937,0 2.953125,0.492188 3.726562,1.476563 0.773438,0.978515 1.160156,2.563476 1.160156,4.757812 h -3.292968 c 0,-1.209961 -0.181641,-2.080078 -0.539063,-2.613281 -0.360351,-0.530273 -0.943359,-0.796875 -1.746094,-0.796875 -1.40625,0 -2.458007,0.603516 -3.152343,1.804688 -0.697266,1.204101 -1.042969,2.9179684 -1.042969,5.1445309 z M 76.41332,0.00101562 V -2.9052344 h 11.085938 v 2.90625002 z m 3.691407,0 V -16.592734 h 2.695312 l 0.621094,4.757812 V 0.00101562 Z M 77.034414,-13.686484 v -2.90625 h 5.542969 l 0.316406,2.90625 z M 102.34691,0.31742187 c -1.26562,0 -2.449215,-0.10253906 -3.550777,-0.3046875 -1.095703,-0.20214843 -2.115235,-0.50683593 -3.058594,-0.9140625 l 0.410156,-3.16406247 c 1.148438,0.4863281 2.25586,0.8554687 3.328125,1.1132812 1.06934,0.2578125 2.10938,0.3867188 3.11719,0.3867188 1.46777,0 2.55469,-0.2519532 3.25781,-0.7617188 0.70898,-0.515625 1.06641,-1.2949219 1.06641,-2.34375 0,-1.3183594 -0.67676,-2.2880859 -2.02735,-2.90625 l -3.85547,-1.7578126 c -1.517574,-0.685547 -2.68066,-1.514648 -3.492183,-2.484375 -0.805664,-0.966797 -1.207032,-2.173828 -1.207032,-3.621094 0,-1.936523 0.580078,-3.436523 1.746094,-4.5 1.171875,-1.069336 2.827151,-1.605468 4.968751,-1.605468 1.49121,0 2.8125,0.219726 3.96094,0.65625 1.14843,0.439453 2.25293,1.154296 3.3164,2.144531 l -2.1914,2.226562 c -0.91407,-0.75 -1.77539,-1.291992 -2.57813,-1.628906 -0.79687,-0.342773 -1.62597,-0.515625 -2.48437,-0.515625 -1.07813,0 -1.91602,0.257813 -2.50782,0.773438 -0.585933,0.515625 -0.878902,1.283203 -0.878902,2.296875 0,0.720703 0.19043,1.30664 0.574222,1.757812 0.38965,0.454102 0.96093,0.861328 1.71093,1.21875 l 3.25782,1.535156 c 1.64648,0.773438 2.89746,1.646485 3.75,2.6132816 0.8584,0.9697266 1.28906,2.2148438 1.28906,3.7382813 0,2.015625 -0.65625,3.5273437 -1.96875,4.5351562 -1.30664,1.00781252 -3.29004,1.51171877 -5.95313,1.51171877 z m 20.99414,0 c -2.83007,0 -5.01269,-0.74121093 -6.55078,-2.22656247 -1.54101,-1.491211 -2.30859,-3.6328125 -2.30859,-6.421875 0,-2.7099614 0.65039,-4.8164064 1.95703,-6.3164064 1.30371,-1.505859 3.14649,-2.261719 5.53125,-2.261719 2.24121,0 3.97559,0.679688 5.20313,2.039063 1.22461,1.359375 1.83984,3.333984 1.83984,5.9179686 0,0.7587891 -0.0322,1.4707031 -0.0937,2.1328125 h -11.64844 v -2.5429687 h 8.74219 c 0,-1.4912114 -0.35742,-2.6367184 -1.06641,-3.4335934 -0.71191,-0.796875 -1.69336,-1.195313 -2.9414,-1.195313 -1.41504,0 -2.51367,0.480469 -3.29297,1.441406 -0.77344,0.955078 -1.16016,2.308594 -1.16016,4.0664066 0,1.921875 0.53321,3.3837891 1.60547,4.3828125 1.06934,1.0019531 2.59277,1.5 4.57031,1.5 0.68555,0 1.36231,-0.038086 2.02735,-0.1171875 0.6709,-0.076172 1.35058,-0.1816406 2.03906,-0.3164062 l 0.41016,2.90624997 c -0.98438,0.1875 -1.88379,0.30761719 -2.69532,0.36328125 -0.81445,0.0527344 -1.53515,0.0820313 -2.16797,0.0820313 z m 18.82618,0 c -2.83008,0 -5.0127,-0.74121093 -6.55078,-2.22656247 -1.54102,-1.491211 -2.3086,-3.6328125 -2.3086,-6.421875 0,-2.7099614 0.72656,-4.8164064 2.17969,-6.3164064 1.45312,-1.505859 3.53027,-2.261719 6.23437,-2.261719 1.61719,0 3.00293,0.301758 4.16016,0.902344 1.1543,0.603516 1.98047,1.450195 2.47266,2.542969 l -2.55469,1.921875 c -0.46875,-0.75586 -1.07227,-1.341797 -1.80469,-1.757813 -0.72656,-0.421875 -1.52344,-0.632812 -2.39062,-0.632812 -1.57032,0 -2.78907,0.474609 -3.65625,1.417969 -0.86133,0.946289 -1.28907,2.291015 -1.28907,4.0312496 0,1.8925781 0.50684,3.3369141 1.52344,4.3359375 1.01367,0.9931641 2.4668,1.4882813 4.35938,1.4882813 0.77343,0 1.54101,-0.035156 2.30859,-0.1054688 0.77344,-0.076172 1.52637,-0.1787109 2.26172,-0.3046875 l 0.375,2.91796877 c -0.85254,0.1875 -1.73438,0.31054688 -2.64844,0.375 -0.91406,0.0615234 -1.80469,0.09375 -2.67187,0.09375 z m 38.29394,0 c -6.9082,0 -10.35937,-3.82031247 -10.35937,-11.46093787 0,-3.624023 0.87011,-6.427734 2.61328,-8.414062 1.74023,-1.992188 4.19824,-2.988281 7.37109,-2.988281 1.53809,0 2.87403,0.243164 4.00781,0.726562 1.13965,0.486328 1.97168,1.177734 2.4961,2.074219 l -2.32031,2.308594 c -0.46875,-0.708985 -1.06641,-1.256836 -1.79297,-1.640625 -0.72657,-0.389649 -1.51172,-0.585938 -2.35547,-0.585938 -2.01563,0 -3.63281,0.726563 -4.85156,2.179688 -1.21289,1.447265 -1.81641,3.503906 -1.81641,6.175781 0,5.830078 2.51367,8.7421874 7.54687,8.7421874 1.50586,0 3,-0.3105469 4.47657,-0.9375 l 0.71484,2.75390622 c -1.81348,0.71191407 -3.72363,1.06640625 -5.73047,1.06640625 z m 16.47949,0 c -2.29687,0 -4.08398,-0.75 -5.35546,-2.24999997 -1.27442,-1.5058594 -1.91016,-3.6269532 -1.91016,-6.3632813 0,-2.7421876 0.63574,-4.8632816 1.91016,-6.3632816 1.27148,-1.5 3.05859,-2.25 5.35546,-2.25 2.30274,0 4.08985,0.75 5.35547,2.25 1.26563,1.5 1.89844,3.621094 1.89844,6.3632816 0,2.7363281 -0.63281,4.8574219 -1.89844,6.3632813 -1.26562,1.49999997 -3.05273,2.24999997 -5.35547,2.24999997 z m 0,-2.97656247 c 1.21875,0 2.15918,-0.4863282 2.82422,-1.4648438 0.66211,-0.984375 0.9961,-2.3730469 0.9961,-4.171875 0,-1.8046876 -0.33399,-3.1933596 -0.9961,-4.1718746 -0.66504,-0.975586 -1.60547,-1.464844 -2.82422,-1.464844 -1.22753,0 -2.17382,0.489258 -2.83593,1.464844 -0.65625,0.978515 -0.98438,2.367187 -0.98438,4.1718746 0,1.7988281 0.32813,3.1875 0.98438,4.171875 0.66211,0.9785156 1.6084,1.4648438 2.83593,1.4648438 z m 23.10352,2.66015622 V -12.678672 c 0,-1.148437 -0.42773,-1.722656 -1.27734,-1.722656 -1.08692,0 -1.62891,0.75 -1.62891,2.25 l -1.125,-2.378906 h 1.27734 c 0.0527,-0.647461 0.31055,-1.207032 0.77344,-1.675782 0.46875,-0.46875 1.13965,-0.703125 2.01563,-0.703125 1.14843,0 1.98339,0.310547 2.50781,0.925782 0.52148,0.618164 0.78515,1.614257 0.78515,2.988281 V 0.00101562 Z m -11.95313,0 V -16.592734 h 2.94141 l 0.375,3.503906 V 0.00101562 Z m 6.22266,0 V -12.995078 c 0,-0.9375 -0.43945,-1.40625 -1.3125,-1.40625 -1.06348,0 -1.59375,0.75 -1.59375,2.25 l -0.97266,-2.378906 h 1.06641 c 0.12305,-1.584961 1.07227,-2.378907 2.84766,-2.378907 0.86718,0 1.54687,0.298828 2.03906,0.890625 0.49805,0.594727 0.75,1.497071 0.75,2.707032 V 0.00101562 Z m 24.29297,0 V -12.678672 c 0,-1.148437 -0.42773,-1.722656 -1.27734,-1.722656 -1.08692,0 -1.62891,0.75 -1.62891,2.25 l -1.125,-2.378906 h 1.27734 c 0.0527,-0.647461 0.31055,-1.207032 0.77344,-1.675782 0.46875,-0.46875 1.13965,-0.703125 2.01563,-0.703125 1.14843,0 1.98339,0.310547 2.50781,0.925782 0.52148,0.618164 0.78515,1.614257 0.78515,2.988281 V 0.00101562 Z m -11.95313,0 V -16.592734 h 2.94141 l 0.375,3.503906 V 0.00101562 Z m 6.22266,0 V -12.995078 c 0,-0.9375 -0.43945,-1.40625 -1.3125,-1.40625 -1.06348,0 -1.59375,0.75 -1.59375,2.25 l -0.97266,-2.378906 h 1.06641 c 0.12305,-1.584961 1.07227,-2.378907 2.84766,-2.378907 0.86718,0 1.54687,0.298828 2.03906,0.890625 0.49805,0.594727 0.75,1.497071 0.75,2.707032 V 0.00101562 Z m 18.58008,0.31640625 c -1.74316,0 -3.09375,-0.51855468 -4.05469,-1.55859377 -0.95508,-1.0371094 -1.42969,-2.5019531 -1.42969,-4.3945312 V -16.592734 h 3.31641 v 10.9570309 c 0,0.9550781 0.26953,1.6875 0.80859,2.203125 0.54493,0.515625 1.3125,0.7734375 2.29688,0.7734375 1.20996,0 2.12109,-0.3808594 2.73047,-1.1484375 0.61523,-0.7646485 0.92578,-2.053711 0.92578,-3.8671875 l 0.85547,4.4765625 h -1.10156 c -0.25782,1.133789 -0.77051,2.0039062 -1.53516,2.61328122 -0.75879,0.60058594 -1.69629,0.90234375 -2.8125,0.90234375 z m 4.875,-0.1640625 -0.28125,-3.97265627 v -2.90625 h 3.32812 v 3.7148438 l 2.28516,0.3515625 V 0.00101562 Z M 256.05004,-4.6982031 V -16.592734 h 3.32812 v 10.9570309 z m 19.25684,4.69921872 V -10.803672 c 0,-0.999023 -0.26368,-1.769531 -0.78516,-2.308594 -0.51563,-0.544922 -1.24219,-0.820312 -2.17969,-0.820312 -2.61035,0 -3.91406,1.535156 -3.91406,4.6054686 l -0.97266,-4.2656246 h 1.27735 c 0.0937,-1.116211 0.49804,-1.948243 1.21875,-2.496094 0.72656,-0.544922 1.78125,-0.820313 3.16406,-0.820313 1.75781,0 3.11719,0.536133 4.07812,1.605469 0.96094,1.063477 1.44141,2.563477 1.44141,4.5 V 0.00101562 Z m -10.20704,0 V -16.592734 h 3.01172 l 0.31641,3.503906 V 0.00101562 Z m 24.99024,0 V -15.655234 h 3.32812 V 0.00101562 Z m -6.31641,0 V -2.9052344 h 6.63281 v 2.90625002 z m 9.32813,0 V -2.9052344 h 5.41406 V 0.00101562 Z M 284.71117,-13.686484 v -2.90625 h 8.70703 v 2.90625 z m 6.9375,-5.542969 c -0.6416,0 -1.18945,-0.225586 -1.64062,-0.679688 -0.4541,-0.451172 -0.67969,-0.996093 -0.67969,-1.628906 0,-0.647461 0.22559,-1.195312 0.67969,-1.640625 0.45117,-0.451172 0.99902,-0.679687 1.64062,-0.679687 0.64746,0 1.19531,0.228515 1.64063,0.679687 0.44531,0.445313 0.66797,0.993164 0.66797,1.640625 0,0.632813 -0.22266,1.177734 -0.66797,1.628906 -0.44532,0.454102 -0.99317,0.679688 -1.64063,0.679688 z m 20.64551,19.54687487 c -2.5166,0 -4.33594,-0.51855468 -5.46094,-1.55859377 -1.11914,-1.0458984 -1.67578,-2.71875 -1.67578,-5.015625 v -2.8242187 h 3.31641 v 2.6601562 c 0,1.3212891 0.31933,2.2792969 0.96093,2.8710938 0.63868,0.5947265 1.69922,0.890625 3.17579,0.890625 0.52148,0 1.07226,-0.026367 1.65234,-0.082031 0.58594,-0.061523 1.25391,-0.140625 2.00391,-0.234375 l 0.375,2.91796877 c -0.72657,0.12304688 -1.43848,0.21679688 -2.13282,0.28125 -0.69726,0.0615234 -1.43554,0.09375 -2.21484,0.0937497 z M 305.15746,-7.8271094 V -21.608359 h 3.31641 v 13.7812496 z m -4.16016,-5.8593746 v -2.90625 h 15.02344 v 2.90625 z m 18.8584,21.1992184 -0.15234,-2.9765625 2.60156,-0.3046875 c 1.09278,-0.140625 2.02735,-0.4423828 2.80078,-0.9023438 0.7793,-0.4541015 1.44727,-1.133789 2.00391,-2.0390625 0.55371,-0.89941404 1.03711,-2.07714841 1.45312,-3.5390625 l 4.13672,-14.3437496 h 3.44532 l -4.79297,15.1171871 c -0.62696,1.98339846 -1.33008,3.5800781 -2.10938,4.7929688 -0.77344,1.2099609 -1.69336,2.1152343 -2.7539,2.71875 -1.06348,0.609375 -2.33204,0.9990234 -3.8086,1.171875 z M 326.14867,0.00101562 319.5393,-16.592734 h 3.44531 l 5.42578,14.0859371 h 0.49219 v 2.50781252 z m 0,0"
           style="fill:#70ac76;fill-opacity:1;fill-rule:nonzero;stroke:none"
           aria-label="CyberSec Community"
           transform="matrix(1.3333333,0,0,1.3333333,409.98667,182.05333)"
           clip-path="url(#clipPath22)" />
      </g>
    </g>
  </g>
</svg>
